# xmcd
#
# Track frame offsets:
#	151
#	52467
#	79882
#	123259
#	136072
#	190881
#	203156
#
# Disc length: 2880 seconds
#
# Revision: 0
# Processed by: cddbd v1.5.2PL0 Copyright (c) Steve Scherf et al.
# Submitted via: audiograbber 1.83.01
#
DISCID=630b3e07
DTITLE=Marvin Gaye - Original Artist - Original Sound [CD 2-2)
DYEAR=2005
DGENRE=Soul
TTITLE0=Medley (With Paulette Wlliamson)
TTITLE1=Joy (Dedication To My Father)
TTITLE2=Distant Lover
TTITLE3=Interlude - African Dance
TTITLE4=Sexual Healing
TTITLE5=Pride And Joy
TTITLE6=Stubborn Kind Of Fellow
EXTD=
EXTT0=
EXTT1=
EXTT2=
EXTT3=
EXTT4=
EXTT5=
EXTT6=
PLAYORDER=
